<svg width="21" height="22" viewBox="0 0 21 22" fill="none" xmlns="http://www.w3.org/2000/svg">
<path d="M0.923096 11.1097C0.923096 13.0631 2.51272 14.6527 4.46608 14.6527C5.40379 14.6527 6.25175 14.2807 6.88594 13.6843L13.9613 17.728C13.94 17.8816 13.914 18.0351 13.914 18.1957C13.914 20.1491 15.5037 21.7387 17.457 21.7387C19.4104 21.7387 21 20.1491 21 18.1957C21 16.2423 19.4104 14.6527 17.457 14.6527C16.5193 14.6527 15.6714 15.0247 15.0372 15.6211L7.96183 11.5786C7.98309 11.4239 8.00907 11.2703 8.00907 11.1097C8.00907 10.9491 7.98309 10.7956 7.96183 10.6409L15.0372 6.59833C15.6714 7.19473 16.5193 7.56675 17.457 7.56675C19.4104 7.56675 21 5.97713 21 4.02376C21 2.07039 19.4104 0.480774 17.457 0.480774C15.5037 0.480774 13.914 2.07039 13.914 4.02376C13.914 4.18438 13.94 4.3379 13.9613 4.49262L6.88594 8.53516C6.23286 7.91476 5.36687 7.5682 4.46608 7.56675C2.51272 7.56675 0.923096 9.15637 0.923096 11.1097Z" fill="#F39C12"/>
</svg>
